<?xml version="1.0" encoding="UTF-8" standalone="no"?>
<!-- Generator: Adobe Illustrator 17.1.0, SVG Export Plug-In . SVG Version: 6.00 Build 0)  -->

<svg
   xmlns:dc="http://purl.org/dc/elements/1.1/"
   xmlns:cc="http://creativecommons.org/ns#"
   xmlns:rdf="http://www.w3.org/1999/02/22-rdf-syntax-ns#"
   xmlns:svg="http://www.w3.org/2000/svg"
   xmlns="http://www.w3.org/2000/svg"
   xmlns:sodipodi="http://sodipodi.sourceforge.net/DTD/sodipodi-0.dtd"
   xmlns:inkscape="http://www.inkscape.org/namespaces/inkscape"
   version="1.1"
   x="0px"
   y="0px"
   width="57.796612"
   height="72.923393"
   viewBox="0 0 57.796612 72.923393"
   xml:space="preserve"
   id="svg2"
   inkscape:version="0.48.5 r10040"
   sodipodi:docname="video.svg"><metadata
   id="metadata16"><rdf:RDF><cc:Work
       rdf:about=""><dc:format>image/svg+xml</dc:format><dc:type
         rdf:resource="http://purl.org/dc/dcmitype/StillImage" /></cc:Work></rdf:RDF></metadata><defs
   id="defs14">
	
</defs><sodipodi:namedview
   pagecolor="#ffffff"
   bordercolor="#666666"
   borderopacity="1"
   objecttolerance="10"
   gridtolerance="10"
   guidetolerance="10"
   inkscape:pageopacity="0"
   inkscape:pageshadow="2"
   inkscape:window-width="1920"
   inkscape:window-height="1018"
   id="namedview12"
   showgrid="false"
   inkscape:zoom="4.9166667"
   inkscape:cx="14.635221"
   inkscape:cy="36.665086"
   inkscape:window-x="-8"
   inkscape:window-y="-8"
   inkscape:window-maximized="1"
   inkscape:current-layer="svg2"
   fit-margin-top="0"
   fit-margin-left="0"
   fit-margin-right="0"
   fit-margin-bottom="0" />
<g
   id="film"
   transform="matrix(2.6271187,0,0,2.1789309,-34.152543,-16.239427)">
		<path
   inkscape:connector-curvature="0"
   id="path6"
   d="M 34,11 H 14 c -0.55,0 -1,0.45 -1,1 v 24 c 0,0.55 0.45,1 1,1 h 20 c 0.55,0 1,-0.45 1,-1 V 12 c 0,-0.55 -0.45,-1 -1,-1 z m -3,20 v -2 h 3 v 2 h -3 z m 3,2 v 2 h -3 v -2 h 3 z m -3,-6 v -2 h 3 v 2 h -3 z m 0,-4 v -2 h 3 v 2 h -3 z m 0,-4 v -2 h 3 v 2 h -3 z m 0,-4 v -2 h 3 v 2 H 31 z M 18,23 V 13 H 30 V 23 H 18 z m 12,2 V 35 H 18 V 25 h 12 z m -16,6 v -2 h 3 v 2 h -3 z m 3,2 v 2 h -3 v -2 h 3 z m -3,-6 v -2 h 3 v 2 h -3 z m 0,-4 v -2 h 3 v 2 h -3 z m 0,-4 v -2 h 3 v 2 h -3 z m 0,-4 v -2 h 3 v 2 h -3 z" />
		<path
   inkscape:connector-curvature="0"
   id="path8"
   d="M 30,13 H 18 V 23 H 30 V 13 z m 0,12 H 18 V 35 H 30 V 25 z"
   style="opacity:0.3" />
	</g>
<g
   id="Layer_2"
   transform="translate(4.7966099,12.258305)">
</g>
<g
   id="nyt_x5F_exporter_x5F_info"
   style="display:none"
   transform="translate(4.7966099,12.258305)">
</g>
</svg>